<svg width="72" height="156" viewBox="0 0 72 156" fill="none" xmlns="http://www.w3.org/2000/svg">
<g filter="url(#filter0_ddd_322_285)">
<path d="M0 4C0 1.79086 1.79086 0 4 0H68C70.2091 0 72 1.79086 72 4V68C72 70.2091 70.2091 72 68 72H4C1.79086 72 0 70.2091 0 68V4Z" fill="#1B1C22"/>
<path d="M36 24L24 30L36 36L48 30L36 24Z" stroke="#E3E3E3" stroke-width="2.4" stroke-linecap="round" stroke-linejoin="round"/>
<path d="M24 42L36 48L48 42" stroke="#E3E3E3" stroke-width="2.4" stroke-linecap="round" stroke-linejoin="round"/>
<path d="M24 36L36 42L48 36" stroke="#E3E3E3" stroke-width="2.4" stroke-linecap="round" stroke-linejoin="round"/>
</g>
<g filter="url(#filter1_d_322_285)">
<path d="M0 88C0 85.7909 1.79086 84 4 84H68C70.2091 84 72 85.7909 72 88V152C72 154.209 70.2091 156 68 156H4C1.79086 156 0 154.209 0 152V88Z" fill="#1B1C22" shape-rendering="crispEdges"/>
<path d="M49 119H48C47.7603 116.168 46.5231 113.512 44.5087 111.507C42.4942 109.502 39.8333 108.277 37 108.05V107C37 106.735 36.8946 106.48 36.7071 106.293C36.5196 106.105 36.2652 106 36 106C35.7348 106 35.4804 106.105 35.2929 106.293C35.1054 106.48 35 106.735 35 107V108C32.1677 108.24 29.5125 109.477 27.5072 111.491C25.5019 113.506 24.2767 116.167 24.05 119H23C22.7348 119 22.4804 119.105 22.2929 119.293C22.1054 119.48 22 119.735 22 120C22 120.265 22.1054 120.52 22.2929 120.707C22.4804 120.895 22.7348 121 23 121H24C24.2284 123.841 25.4606 126.508 27.4761 128.524C29.4917 130.539 32.1588 131.772 35 132V133C35 133.265 35.1054 133.52 35.2929 133.707C35.4804 133.895 35.7348 134 36 134C36.2652 134 36.5196 133.895 36.7071 133.707C36.8946 133.52 37 133.265 37 133V132C39.8412 131.772 42.5083 130.539 44.5239 128.524C46.5394 126.508 47.7716 123.841 48 121H49C49.2652 121 49.5196 120.895 49.7071 120.707C49.8946 120.52 50 120.265 50 120C50 119.735 49.8946 119.48 49.7071 119.293C49.5196 119.105 49.2652 119 49 119ZM37 130V129C37 128.735 36.8946 128.48 36.7071 128.293C36.5196 128.105 36.2652 128 36 128C35.7348 128 35.4804 128.105 35.2929 128.293C35.1054 128.48 35 128.735 35 129V130C32.6971 129.767 30.5462 128.743 28.9141 127.102C27.282 125.461 26.2697 123.304 26.05 121H27C27.2652 121 27.5196 120.895 27.7071 120.707C27.8946 120.52 28 120.265 28 120C28 119.735 27.8946 119.48 27.7071 119.293C27.5196 119.105 27.2652 119 27 119H26C26.2326 116.697 27.2568 114.546 28.898 112.914C30.5393 111.282 32.6958 110.27 35 110.05V111C35 111.265 35.1054 111.52 35.2929 111.707C35.4804 111.895 35.7348 112 36 112C36.2652 112 36.5196 111.895 36.7071 111.707C36.8946 111.52 37 111.265 37 111V110C39.3119 110.222 41.4745 111.241 43.1167 112.883C44.7589 114.526 45.7784 116.688 46 119H45C44.7348 119 44.4804 119.105 44.2929 119.293C44.1054 119.48 44 119.735 44 120C44 120.265 44.1054 120.52 44.2929 120.707C44.4804 120.895 44.7348 121 45 121H46C45.7784 123.312 44.7589 125.474 43.1167 127.117C41.4745 128.759 39.3119 129.778 37 130Z" fill="#E3E3E3"/>
<path d="M36 114C34.8133 114 33.6533 114.352 32.6666 115.011C31.6799 115.67 30.9109 116.608 30.4567 117.704C30.0026 118.8 29.8838 120.007 30.1153 121.171C30.3468 122.334 30.9182 123.404 31.7574 124.243C32.5965 125.082 33.6656 125.653 34.8295 125.885C35.9933 126.116 37.1997 125.997 38.2961 125.543C39.3925 125.089 40.3295 124.32 40.9888 123.333C41.6481 122.347 42 121.187 42 120C42 118.409 41.3679 116.883 40.2426 115.757C39.1174 114.632 37.5913 114 36 114ZM36 124C35.2089 124 34.4355 123.765 33.7777 123.326C33.1199 122.886 32.6072 122.262 32.3045 121.531C32.0017 120.8 31.9225 119.996 32.0769 119.22C32.2312 118.444 32.6122 117.731 33.1716 117.172C33.731 116.612 34.4437 116.231 35.2196 116.077C35.9956 115.923 36.7998 116.002 37.5307 116.304C38.2616 116.607 38.8864 117.12 39.3259 117.778C39.7654 118.436 40 119.209 40 120C40 121.061 39.5786 122.078 38.8284 122.828C38.0783 123.579 37.0609 124 36 124Z" fill="#E3E3E3"/>
<path d="M36 119C35.8022 119 35.6089 119.059 35.4444 119.169C35.28 119.278 35.1518 119.435 35.0761 119.617C35.0004 119.8 34.9806 120.001 35.0192 120.195C35.0578 120.389 35.153 120.567 35.2929 120.707C35.4327 120.847 35.6109 120.942 35.8049 120.981C35.9989 121.019 36.2 121 36.3827 120.924C36.5654 120.848 36.7216 120.72 36.8315 120.556C36.9414 120.391 37 120.198 37 120C37 119.735 36.8946 119.48 36.7071 119.293C36.5196 119.105 36.2652 119 36 119Z" fill="#E3E3E3"/>
</g>
<defs>
<filter id="filter0_ddd_322_285" x="-20" y="-12" width="104" height="104" filterUnits="userSpaceOnUse" color-interpolation-filters="sRGB">
<feFlood flood-opacity="0" result="BackgroundImageFix"/>
<feColorMatrix in="SourceAlpha" type="matrix" values="0 0 0 0 0 0 0 0 0 0 0 0 0 0 0 0 0 0 127 0" result="hardAlpha"/>
<feMorphology radius="2" operator="dilate" in="SourceAlpha" result="effect1_dropShadow_322_285"/>
<feOffset/>
<feGaussianBlur stdDeviation="3"/>
<feComposite in2="hardAlpha" operator="out"/>
<feColorMatrix type="matrix" values="0 0 0 0 0.160784 0 0 0 0 0.188235 0 0 0 0 0.266667 0 0 0 0.15 0"/>
<feBlend mode="normal" in2="BackgroundImageFix" result="effect1_dropShadow_322_285"/>
<feColorMatrix in="SourceAlpha" type="matrix" values="0 0 0 0 0 0 0 0 0 0 0 0 0 0 0 0 0 0 127 0" result="hardAlpha"/>
<feOffset dx="4" dy="-4"/>
<feGaussianBlur stdDeviation="2"/>
<feComposite in2="hardAlpha" operator="out"/>
<feColorMatrix type="matrix" values="0 0 0 0 0 0 0 0 0 0 0 0 0 0 0 0 0 0 0.08 0"/>
<feBlend mode="normal" in2="effect1_dropShadow_322_285" result="effect2_dropShadow_322_285"/>
<feColorMatrix in="SourceAlpha" type="matrix" values="0 0 0 0 0 0 0 0 0 0 0 0 0 0 0 0 0 0 127 0" result="hardAlpha"/>
<feOffset dx="-4" dy="4"/>
<feGaussianBlur stdDeviation="8"/>
<feComposite in2="hardAlpha" operator="out"/>
<feColorMatrix type="matrix" values="0 0 0 0 0 0 0 0 0 0 0 0 0 0 0 0 0 0 0.25 0"/>
<feBlend mode="normal" in2="effect2_dropShadow_322_285" result="effect3_dropShadow_322_285"/>
<feBlend mode="normal" in="SourceGraphic" in2="effect3_dropShadow_322_285" result="shape"/>
</filter>
<filter id="filter1_d_322_285" x="-8" y="76" width="88" height="88" filterUnits="userSpaceOnUse" color-interpolation-filters="sRGB">
<feFlood flood-opacity="0" result="BackgroundImageFix"/>
<feColorMatrix in="SourceAlpha" type="matrix" values="0 0 0 0 0 0 0 0 0 0 0 0 0 0 0 0 0 0 127 0" result="hardAlpha"/>
<feMorphology radius="2" operator="dilate" in="SourceAlpha" result="effect1_dropShadow_322_285"/>
<feOffset/>
<feGaussianBlur stdDeviation="3"/>
<feComposite in2="hardAlpha" operator="out"/>
<feColorMatrix type="matrix" values="0 0 0 0 0.160784 0 0 0 0 0.188235 0 0 0 0 0.266667 0 0 0 0.15 0"/>
<feBlend mode="normal" in2="BackgroundImageFix" result="effect1_dropShadow_322_285"/>
<feBlend mode="normal" in="SourceGraphic" in2="effect1_dropShadow_322_285" result="shape"/>
</filter>
</defs>
</svg>
