<svg width="32" height="32" viewBox="0 0 32 32" fill="none"
    xmlns="http://www.w3.org/2000/svg">
    <path d="M7.05727 7.0572C7.57797 6.5365 8.42219 6.5365 8.94289 7.0572L16.0001 14.1144L23.0573 7.0572C23.578 6.5365 24.4222 6.5365 24.9429 7.0572C25.4636 7.5779 25.4636 8.42212 24.9429 8.94281L17.8857 16L24.9429 23.0572C25.4636 23.5779 25.4636 24.4221 24.9429 24.9428C24.4222 25.4635 23.578 25.4635 23.0573 24.9428L16.0001 17.8856L8.94289 24.9428C8.42219 25.4635 7.57797 25.4635 7.05727 24.9428C6.53657 24.4221 6.53657 23.5779 7.05727 23.0572L14.1145 16L7.05727 8.94281C6.53657 8.42212 6.53657 7.5779 7.05727 7.0572Z" fill="#C0BBC9"/>
</svg>
