<svg width="32" height="32" viewBox="0 0 32 32" fill="none" xmlns="http://www.w3.org/2000/svg">
<g clip-path="url(#clip0_322_301)">
<path d="M16 15C15.8022 15 15.6089 15.0586 15.4444 15.1685C15.28 15.2784 15.1518 15.4346 15.0761 15.6173C15.0004 15.8 14.9806 16.0011 15.0192 16.1951C15.0578 16.3891 15.153 16.5673 15.2929 16.7071C15.4327 16.847 15.6109 16.9422 15.8049 16.9808C15.9989 17.0194 16.2 16.9996 16.3827 16.9239C16.5654 16.8482 16.7216 16.72 16.8315 16.5556C16.9414 16.3911 17 16.1978 17 16C17 15.7348 16.8946 15.4804 16.7071 15.2929C16.5196 15.1054 16.2652 15 16 15Z" fill="#E3E3E3"/>
<path d="M12 16.0002L20 16.0002L16 32.0002L12 16.0002Z" fill="#4C9CD6"/>
<path d="M12 16.0002L16 32.0002L16 16.0002L12 16.0002Z" fill="#4C9CD6"/>
<path d="M20 16.001L12 16.001L16 0.000976562L20 16.001Z" fill="#F04B4D"/>
<path d="M16 16.001L16 0.000976562L12 16.001H16Z" fill="#F04B4D"/>
<circle cx="16" cy="16" r="2" fill="#1B1C22"/>
</g>
<defs>
<clipPath id="clip0_322_301">
<rect width="32" height="32" fill="white"/>
</clipPath>
</defs>
</svg>
